<!-- Generator: Adobe Illustrator 21.0.0, SVG Export Plug-In  -->
<svg version="1.1"
	 xmlns="http://www.w3.org/2000/svg" xmlns:xlink="http://www.w3.org/1999/xlink" xmlns:a="http://ns.adobe.com/AdobeSVGViewerExtensions/3.0/"
	 x="0px" y="0px" width="58.5px" height="50.3px" viewBox="0 0 58.5 50.3" style="enable-background:new 0 0 58.5 50.3;"
	 xml:space="preserve">
<style type="text/css">
	.st0{fill:#F21919;}
</style>
<defs>
</defs>
<path class="st0" d="M44.8,7.5c-0.6,0-1.2,0.1-1.8,0.1C40.8,3.1,36.2,0,30.8,0c-4.2,0-7.9,1.9-10.4,4.9c-1.8-0.8-3.7-1.2-5.8-1.2
	C6.5,3.7,0,10.2,0,18.2c0,6.7,4.6,12.3,10.7,14v18.1h36.4V34.7c6.4-1.1,11.3-6.7,11.3-13.5C58.5,13.6,52.4,7.5,44.8,7.5z M15.5,45.5
	v-7h26.9v7H15.5z M44.8,30.1h-2.4v7.1H15.5v-5.8c3.2-0.1,6.2-1.4,8.3-3.5c1.7,0.9,3.6,1.4,5.6,1.4c5,0,9.3-3,11.2-7.2
	c0.1-0.1,0.1-0.2,0.2-0.3c0,0,0-0.1,0.1-0.1l0,0c0-0.1,0.1-0.3,0.1-0.4c0-0.9-0.8-1.7-1.7-1.7c-0.6,0-1.2,0.4-1.5,0.9l0,0
	c-1.3,3.3-4.5,5.6-8.3,5.6c-1.9,0-3.6-0.6-5-1.5l-1.3-0.9l-1,1.2c-1.7,2-4.1,3.3-6.9,3.3v0.1l-1.9-0.2c-4.9-0.6-8.7-4.7-8.6-9.7
	c0-5.4,4.4-9.8,9.8-9.8c1.9,0,3.7,0.6,5.3,1.6l2.1,1.3l1.3-2.1c1.6-2.7,4.4-4.4,7.7-4.4c4,0,7.4,2.7,8.5,6.3l0.7,2.2l2.3-0.7
	c0.9-0.3,1.7-0.4,2.6-0.4c4.9,0,8.9,4,8.9,8.9C53.7,26.1,49.7,30.1,44.8,30.1z"/>
</svg>
